# xmcd
#
# Track frame offsets:
#	150
#	14538
#	29122
#	46032
#	57212
#	71726
#	86239
#	98924
#	111171
#	125639
#	146810
#	164214
#	182700
#	194377
#	206682
#	216974
#	229133
#	250363
#	264532
#	277392
#	291797
#
# Disc length: 4072 seconds
#
# Revision: 1
# Processed by: cddbd v1.5.1PL0 Copyright (c) Steve Scherf et al.
# Submitted via: audiograbber 1.83.01
#
DISCID=5d0fe615
DTITLE=ΜΑΡΙΝΕΛΛΑ - ΜΕΓΑΛΕΣ ΣΤΙΓΜΕΣ
DYEAR=1900
DGENRE=ΛΑΪΚΑ
TTITLE0=ΑΓΑΠΗ ΜΟΥ (Μ.Θεοδωράκης)
TTITLE1=ΟΔΟΣ ΟΝΕΙΡΩΝ (Μ.Χατζιδάκης)
TTITLE2=ΟΜΟΡΦΗ ΠΟΛΗ (Μ.Θεοδωράκης Γιαν.Θεοδωράκης)
TTITLE3=ΑΝ ΘΥΜΗΘΕΙΣ ΣΤ'ΟΝΕΙΡΟ ΜΟΥ (Μ.Θεοδωράκης Β.Καρδης)
TTITLE4=ΚΑΘΕ ΤΡΕΛΛΟ ΠΑΙΔΙ (Μ.Χατζιδάκης)
TTITLE5=ΔΕΝ ΗΤΑΝ ΝΗΣΙ (Μ.Χατζιδάκης)
TTITLE6=ΤΩΡΑ ΠΟΥ ΠΑΣ ΣΤΗ ΞΕΝΗΤΕΙΑ (Μ.Χατζιδάκησ Ν.Γκάτσος)
TTITLE7=Ο ΚΑΡΑΓΚΙΟΖΗΣ (Δ.Σαββόπουλος)
TTITLE8=ΕΝΑΣ ΜΥΘΟΣ (Μ.Χατζιδάκης)
TTITLE9=ΤΑ ΛΟΓΙΑ ΚΑΙ ΤΑ ΧΡΟΝΙΑ (Γ.Μαρκόπουλος Μ.Ελευθερίου)
TTITLE10=ΤΟ ΠΑΛΙΟ ΡΟΛΟΪ (Μ.Λοϊζος Λ.Παπαδόπουλος)
TTITLE11=ΠΕΣ ΜΟΥ ΠΩΣ Μ' ΑΝΤΑΜΩΣΕΣ (Γ.Σπανός Λ.Παπαδόπουλος)
TTITLE12=ΥΠΟΜΟΝΗ (Στ.Ξαρχάκος Α.Σακελλάριος)
TTITLE13=ΑΓΑΠΗ ΠΟΥΓΙΝΕΣ ΔΙΚΟΠΟ ΜΑΧΑΙΡΙ (Μ.Χατζιδάκης Ι.Γεωργακόπουλος Μ.Κακογιά
TTITLE13=ννης)
TTITLE14=Ο ΚΥΡ ΑΝΤΩΝΗΣ (Μ.Χατζιδάκης)
TTITLE15=ΑΣΠΡΑ ΚΟΚΚΙΝΑ ΚΙΤΡΙΝΑ ΜΠΛΕ (Δ.Μούτσης Γ.Λογοθέτης)
TTITLE16=ΣΤΑ ΠΕΡΒΟΛΙΑ (Μ.Θεοδωράκης)
TTITLE17=ΜΑΤΙΑ ΒΟΥΡΚΟΜΕΝΑ (Στ.Ξαρχάκος Ν.Γκάτσος)
TTITLE18=Ο ΧΑΡΟΣ ΒΓΗΚΕ ΠΑΓΑΝΙΑ (Δ.Μούτσης Μ.Ελευθερίου)
TTITLE19=ΑΥΤΑ ΤΑ ΧΕΡΙΑ (Δ.Μούτσης Λ.Παπαδόπουλος)
TTITLE20=ΕΤΣΙ ΕΙΝ' Η ΖΩΗ (Δ.Μούτσης Γ.Λογοθέτης)
EXTD=
EXTT0=
EXTT1=
EXTT2=
EXTT3=
EXTT4=
EXTT5=
EXTT6=
EXTT7=
EXTT8=
EXTT9=
EXTT10=
EXTT11=
EXTT12=
EXTT13=
EXTT14=
EXTT15=
EXTT16=
EXTT17=
EXTT18=
EXTT19=
EXTT20=
PLAYORDER=
